<svg id="Capa_1" enable-background="new 0 0 512 512" height="512" viewBox="0 0 512 512" width="512" xmlns="http://www.w3.org/2000/svg"><g><path d="m236.668 145.331c-12.465-12.466-29.039-19.331-46.668-19.331-21.544 0-34.348 6.601-43.697 11.421-5.157 2.658-8.882 4.579-12.303 4.579s-7.146-1.921-12.302-4.579c-9.349-4.82-22.153-11.421-43.698-11.421-17.628 0-34.204 6.866-46.669 19.331-12.466 12.466-19.331 29.04-19.331 46.669 0 34.076 9.029 80.944 23.565 122.315 6.864 19.537 14.396 36.234 21.783 48.286 9.651 15.745 19.023 23.399 28.652 23.399 12.083 0 17.622-11.53 22.979-22.681 7.348-15.294 13.059-25.319 25.021-25.319s17.673 10.025 25.02 25.319c5.358 11.151 10.897 22.681 22.98 22.681 9.629 0 19.001-7.654 28.65-23.399 7.388-12.052 14.92-28.749 21.783-48.286 14.538-41.371 23.567-88.239 23.567-122.315 0-17.629-6.865-34.203-19.332-46.669z" fill="#fff7dc"/><path d="m434 126c-21.544 0-34.348 6.601-43.697 11.421-5.156 2.658-8.882 4.579-12.303 4.579s-7.146-1.921-12.302-4.579c-9.348-4.82-22.153-11.421-43.698-11.421-36.393 0-66 29.607-66 66 0 34.076 9.029 80.944 23.565 122.315 6.864 19.537 14.397 36.234 21.783 48.286 9.651 15.745 19.023 23.399 28.652 23.399 12.083 0 17.622-11.53 22.979-22.681 7.348-15.294 13.059-25.319 25.021-25.319s17.673 10.025 25.021 25.319c5.357 11.151 10.896 22.681 22.979 22.681 9.629 0 19.001-7.654 28.65-23.399 7.388-12.052 14.92-28.749 21.783-48.286 14.538-41.371 23.567-88.239 23.567-122.315 0-36.393-29.607-66-66-66z" fill="#f4e8c3"/><path d="m346 255h-180c-8.284 0-15-6.716-15-15s6.716-15 15-15h180c8.283 0 15 6.716 15 15s-6.717 15-15 15z" fill="#4d5789"/><path d="m346 225h-90v30h90c8.283 0 15-6.716 15-15s-6.717-15-15-15z" fill="#343d71"/><path d="m497 255h-87c-8.284 0-15-6.716-15-15s6.716-15 15-15h87c8.283 0 15 6.716 15 15s-6.717 15-15 15z" fill="#343d71"/><path d="m102 255h-87c-8.284 0-15-6.716-15-15s6.716-15 15-15h87c8.283 0 15 6.716 15 15s-6.717 15-15 15z" fill="#4d5789"/><path d="m166 193h-64c-8.284 0-15 6.716-15 15v64c0 8.284 6.716 15 15 15h64c8.283 0 15-6.716 15-15v-64c0-8.284-6.717-15-15-15z" fill="#677197"/><path d="m410 193h-64c-8.284 0-15 6.716-15 15v64c0 8.284 6.716 15 15 15h64c8.283 0 15-6.716 15-15v-64c0-8.284-6.717-15-15-15z" fill="#4d5789"/></g></svg>