<?xml version="1.0" encoding="iso-8859-1"?>
<!-- Generator: Adobe Illustrator 19.0.0, SVG Export Plug-In . SVG Version: 6.00 Build 0)  -->
<svg version="1.1" id="Capa_1" xmlns="http://www.w3.org/2000/svg" xmlns:xlink="http://www.w3.org/1999/xlink" x="0px" y="0px"
	 viewBox="0 0 395.947 395.947" style="enable-background:new 0 0 395.947 395.947;" xml:space="preserve">
<g>
	<circle style="fill:#FFE600;" cx="197.973" cy="256" r="58.027"/>
	<path style="fill:#FFFFFF;" d="M337.821,129.71c0.065-2.42,0.099-4.7,0.099-6.83c0-64.096-29.85-116.053-75.093-116.053
		c-21.617,0-43.237,20.48-64.853,20.48s-43.237-20.48-64.853-20.48c-45.244,0-75.093,51.958-75.093,116.053
		s29.85,266.24,75.093,266.24c26.392,0,29.392-167.868,64.853-168.021c42.288,0.154,38.461,168.021,64.853,168.021
		c36.745,0,63.334-133.328,72.028-217.754"/>
</g>
<path style="fill:#602F75;" d="M262.827,395.947c-17.381,0-22.627-29.798-30.573-74.909c-6.526-37.052-16.394-93.047-34.307-93.109
	c-13.408,0.058-24.392,54.992-30.959,87.818c-10.247,51.22-16.872,80.2-33.867,80.2c-55.572,0-81.92-219.027-81.92-273.067
	C51.2,51.681,85.654,0,133.12,0c12.346,0,24.04,5.54,35.345,10.895c10.407,4.932,20.234,9.585,29.508,9.585
	c9.274,0,19.101-4.652,29.508-9.585C238.787,5.54,250.481,0,262.827,0c47.466,0,81.92,51.681,81.92,122.88
	c0,2.191-0.034,4.529-0.099,7.018c-0.106,3.772-3.533,6.769-7.014,6.636c-3.772-0.102-6.741-3.243-6.639-7.011
	c0.065-2.352,0.099-4.574,0.099-6.642c0-63.29-28.713-109.227-68.267-109.227c-9.274,0-19.101,4.652-29.508,9.585
	c-11.305,5.356-22.999,10.895-35.345,10.895c-12.346,0-24.04-5.54-35.345-10.895c-10.407-4.932-20.234-9.585-29.508-9.585
	c-39.554,0-68.267,45.937-68.267,109.227c0,31.727,7.639,98.628,20.412,155.662c17.142,76.496,35.963,103.752,47.855,103.752
	c7.148-2.594,15.493-44.305,20.48-69.226c10.155-50.753,19.739-98.69,44.346-98.792c29.379,0.102,38.721,53.122,47.753,104.397
	c4.267,24.245,10.721,60.884,17.347,63.659c20.675-0.038,51.555-80.947,65.014-211.668c0.393-3.751,3.734-6.485,7.492-6.089
	c3.748,0.386,6.479,3.741,6.093,7.489c-5.106,49.565-14.718,102.533-25.719,141.687C300.394,369.06,283.02,395.947,262.827,395.947z
	"/>
<rect x="119.467" y="81.92" style="fill:#EA3457;" width="157.013" height="95.573"/>
<path style="fill:#602F75;" d="M276.48,184.32H119.467c-3.772,0-6.827-3.058-6.827-6.827V81.92c0-3.768,3.055-6.827,6.827-6.827
	H276.48c3.772,0,6.827,3.058,6.827,6.827v95.573C283.307,181.262,280.252,184.32,276.48,184.32z M126.293,170.667h143.36v-81.92
	h-143.36V170.667z"/>
<path style="fill:#602F75;" d="M269.653,136.533h-143.36c-3.772,0-6.827-3.058-6.827-6.827c0-3.768,3.055-6.827,6.827-6.827h143.36
	c3.772,0,6.827,3.058,6.827,6.827C276.48,133.475,273.425,136.533,269.653,136.533z"/>
<rect x="10.24" y="116.053" style="fill:#00E7FF;" width="109.227" height="27.307"/>
<path style="fill:#602F75;" d="M119.467,150.187H10.24c-3.772,0-6.827-3.058-6.827-6.827v-27.307c0-3.768,3.055-6.827,6.827-6.827
	h109.227c3.772,0,6.827,3.058,6.827,6.827v27.307C126.293,147.128,123.238,150.187,119.467,150.187z M17.067,136.533h95.573V122.88
	H17.067V136.533z"/>
<rect x="276.48" y="116.053" style="fill:#00E7FF;" width="109.227" height="27.307"/>
<path style="fill:#602F75;" d="M385.707,150.187H276.48c-3.772,0-6.827-3.058-6.827-6.827v-27.307c0-3.768,3.055-6.827,6.827-6.827
	h109.227c3.772,0,6.827,3.058,6.827,6.827v27.307C392.533,147.128,389.478,150.187,385.707,150.187z M283.307,136.533h95.573V122.88
	h-95.573V136.533z"/>
<rect x="153.6" y="102.4" style="fill:#FFFFFF;" width="20.48" height="54.613"/>
<path style="fill:#602F75;" d="M174.08,163.84H153.6c-3.772,0-6.827-3.058-6.827-6.827V102.4c0-3.768,3.055-6.827,6.827-6.827h20.48
	c3.772,0,6.827,3.058,6.827,6.827v54.613C180.907,160.782,177.852,163.84,174.08,163.84z M160.427,150.187h6.827v-40.96h-6.827
	V150.187z"/>
<rect x="215.04" y="102.4" style="fill:#FFFFFF;" width="20.48" height="54.613"/>
<path style="fill:#602F75;" d="M235.52,163.84h-20.48c-3.772,0-6.827-3.058-6.827-6.827V102.4c0-3.768,3.055-6.827,6.827-6.827
	h20.48c3.772,0,6.827,3.058,6.827,6.827v54.613C242.347,160.782,239.292,163.84,235.52,163.84z M221.867,150.187h6.827v-40.96
	h-6.827V150.187z"/>
<g>
</g>
<g>
</g>
<g>
</g>
<g>
</g>
<g>
</g>
<g>
</g>
<g>
</g>
<g>
</g>
<g>
</g>
<g>
</g>
<g>
</g>
<g>
</g>
<g>
</g>
<g>
</g>
<g>
</g>
</svg>
