<svg id="Capa_1" enable-background="new 0 0 496.845 496.845" height="512" viewBox="0 0 496.845 496.845" width="512" xmlns="http://www.w3.org/2000/svg"><g><path d="m230.8 338.644c-.8-.33-1.32-1.1-1.32-1.96v-92.29h-96.61v92.29c0 .86-.52 1.63-1.32 1.96l-27.25 24.81 85.026 40.075 55.195-55.165z" fill="#ffdfcf"/><g><path d="m65.858 87.848-3.278 87.543 8.154 15.118 228.395-5.937-.569-16.616.006-39.262 3.222-15.593-4.393-19.891-2.051-5.362-.989-18.147c-1.107-20.314-13.846-38.162-32.697-45.813l-2.1-2.053c-11.068-10.819-26.345-16.205-41.751-14.722l-9.892.953-6.633-2.841c-13.207-5.656-28.154-5.656-41.361 0l-6.633 2.841-9.892-.953c-15.406-1.484-30.683 3.903-41.751 14.722l-2.1 2.053c-18.851 7.65-31.589 25.498-32.697 45.813z" fill="#b5adb6"/></g><path d="m274.729 208.235c14.894 0 26.969-12.074 26.969-26.969 0-14.894-12.074-26.969-26.969-26.969h-55.237v52.667z" fill="#ffdfcf"/><path d="m86.471 208.235c-14.894 0-26.969-12.074-26.969-26.969 0-14.894 12.074-26.969 26.969-26.969h46.398v53.937h-46.398z" fill="#ffcebf"/><g><path d="m132.87 244.394v72.641 19.649c0 .86-.52 1.63-1.32 1.96l-27.25 24.81 38.638 18.211 11.357-10.341c.8-.33 1.32-1.1 1.32-1.96v-29.927c0-6.14 5.491-10.765 11.559-9.827 4.287.662 8.629.998 13.002.998 9.776 0 19.41-1.657 28.602-4.914l.777-.273c7.023-2.492 13.684-5.642 19.925-9.365v-38.981-32.681z" fill="#ffcebf"/><path d="m291.61 363.454-60.81-24.81-34.22 29.4c-9.06 7.79-22.48 7.74-31.48-.12l-10.352-9.034-16.742-5.154-6.456-15.092-60.81 24.81c-42.78 17.45-70.74 59.06-70.74 105.27v10.642c0 9.007 7.301 16.308 16.308 16.308h329.733c9.007 0 16.308-7.302 16.308-16.308v-10.642c.001-46.21-27.959-87.82-70.739-105.27z" fill="#faf7f7"/><g><path d="m40.006 492.754v-10.642c0-46.21 27.96-87.82 70.74-105.27l44.002-17.952-23.198-20.245-60.81 24.81c-42.78 17.449-70.74 59.059-70.74 105.269v10.642c0 9.007 7.301 16.308 16.308 16.308h23.974c-.172-.949-.276-1.922-.276-2.92z" fill="#f9f3f1"/></g><path d="m230.8 338.644-34.22 29.4c-9.06 7.79-22.48 7.74-31.48-.12l-10.352-9.034-16.742-5.154-6.456-15.092-11.37 4.64 60.91 152.39h.16l60.92-152.39z" fill="#c8effe"/><path d="m112.743 479.106h-61.778c-2.884 0-5.223-2.338-5.223-5.223v-23.038c0-2.884 2.338-5.223 5.223-5.223h61.777c2.884 0 5.223 2.338 5.223 5.223v23.038c0 2.885-2.338 5.223-5.222 5.223z" fill="#c8effe"/><path d="m244.522 152.58 2.82-48.164h-155.5v14.795l21.44-1.153-11.749 95.951 21.322 55.917 23.716 28.285 50.042 13.526 18.531-4.926c32.936-16.255 54.277-49.969 54.277-87.355l-.06-62.735z" fill="#ffeee6"/><path d="m269.28 104.424h-138.578-6.23-32.662v115.34c0 20.55 6.45 39.99 17.73 56.04 11.29 16.05 27.41 28.69 46.75 35.64 15.35 5.52 32.13 5.55 47.51.1l.74-.26c3.649-1.294 7.194-2.789 10.605-4.474-6.763-.377-13.496-1.718-19.963-4.044-19.34-6.95-35.46-19.59-46.75-35.64-11.28-16.05-17.73-35.49-17.73-56.04v-61.592c0-4.787 3.881-8.667 8.667-8.667h15.083c2.586 0 4.933 1.426 6.217 3.671 11.672 20.423 33.663 34.222 58.824 34.222 19.703 0 37.495-8.519 49.877-21.998z" fill="#ffdfcf"/><path d="m301.686 125.827c5.758 0 10.426-4.668 10.426-10.426v-8.785c0-5.758-4.668-10.426-10.426-10.426h-238.428c-5.758 0-10.426 4.668-10.426 10.426v8.785c0 5.758 4.668 10.426 10.426 10.426z" fill="#faf7f7"/><circle cx="219.492" cy="111.008" fill="#c9bfc8" r="52.713"/><path d="m219.492 133.72c-12.523 0-22.712-10.189-22.712-22.712s10.188-22.712 22.712-22.712 22.713 10.189 22.713 22.712-10.189 22.712-22.713 22.712z" fill="#fee97d"/><g><circle cx="376.511" cy="375.528" fill="#c8effe" r="120.334"/><path d="m305.596 375.528c0-57.989 41.037-106.399 95.642-117.796-7.976-1.665-16.256-2.537-24.726-2.537-66.458 0-120.334 53.875-120.334 120.334s53.875 120.334 120.334 120.334c8.47 0 16.763-.881 24.738-2.545-54.605-11.399-95.654-59.801-95.654-117.79z" fill="#99e6fc"/><path d="m363.339 414.77-6.108 32.567c-1.126 6.003-6.367 10.352-12.474 10.352-6.494 0-11.94-4.902-12.622-11.359l-3.659-34.664-23.503-32.311c-14.112-19.401-10.416-46.478 8.38-61.387 15.735-12.481 37.859-12.95 54.109-1.147 5.825 4.231 13.711 4.231 19.536 0 16.25-11.803 38.373-11.334 54.109 1.147 18.796 14.908 22.492 41.986 8.38 61.387l-23.503 32.311-3.659 34.664c-.682 6.458-6.128 11.359-12.622 11.359-6.107 0-11.348-4.35-12.474-10.352l-6.108-32.567c-1.254-6.684-7.09-11.528-13.891-11.528-6.801.001-12.637 4.844-13.891 11.528z" fill="#faf7f7"/><path d="m305.695 380.347c-.063-1.599-.1-3.205-.1-4.819 0-23.423 6.704-45.293 18.285-63.783-3.708 1.553-7.26 3.631-10.527 6.222-18.796 14.908-22.492 41.986-8.38 61.387z" fill="#f9f3f1"/><g><path d="m377.214 362.098c-7.979 0-15.957-2.07-22.768-6.21-.026-.016-.072-.044-.098-.061-3.513-2.195-4.581-6.822-2.386-10.335s6.826-4.58 10.335-2.385l.02.012c8.886 5.4 20.929 5.398 29.889-.058 3.536-2.153 8.151-1.033 10.307 2.505 2.154 3.538 1.032 8.152-2.506 10.306-6.815 4.151-14.804 6.226-22.793 6.226z" fill="#e5e1e5"/></g></g></g><path d="m154.748 358.89-23.198-20.246-11.37 4.64 10.21 25.544z" fill="#99e6fc"/></g></svg>