<svg id="Capa_1" enable-background="new 0 0 512 512" height="512" viewBox="0 0 512 512" width="512" xmlns="http://www.w3.org/2000/svg"><g><path d="m399 312c0 40.08-11.37 88.25-30.42 128.87-12.46 26.56-38.45 71.13-72.58 71.13-25.96 0-35.51-22.67-41.82-37.68-6.54-15.53-9.33-19.32-14.18-19.32s-7.64 3.79-14.18 19.32c-6.31 15.01-15.86 37.68-41.82 37.68-34.13 0-60.12-44.57-72.58-71.13-19.05-40.62-30.42-88.79-30.42-128.87 0-24.35 7.56-47.21 21.29-64.37 16.03-20.04 38.75-30.63 65.71-30.63 5.43 0 10.69.39 16 1.2.87.13 1.74.28 2.61.43 7.16 1.26 12.39 7.49 12.39 14.77v70.6c0 9.37 7.63 17 17 17h48c9.37 0 17-7.63 17-17v-70.6c0-7.28 5.23-13.51 12.39-14.77.87-.15 1.74-.3 2.61-.43 5.31-.81 10.57-1.2 16-1.2 26.96 0 49.68 10.59 65.71 30.63 13.73 17.16 21.29 40.02 21.29 64.37z" fill="#fff7dc"/><path d="m399 312c0 40.08-11.37 88.25-30.42 128.87-12.46 26.56-38.45 71.13-72.58 71.13-25.96 0-35.51-22.67-41.82-37.68-6.54-15.53-9.33-19.32-14.18-19.32v-134h24c9.37 0 17-7.63 17-17v-70.6c0-7.28 5.23-13.51 12.39-14.77.87-.15 1.74-.3 2.61-.43 5.31-.81 10.57-1.2 16-1.2 26.96 0 49.68 10.59 65.71 30.63 13.73 17.16 21.29 40.02 21.29 64.37z" fill="#f4e8c3"/><path d="m296 218.2v85.8c0 17.6-14.4 32-32 32h-48c-17.6 0-32-14.4-32-32v-85.8c.87.13 1.74.28 2.61.43 10.85 1.91 19.91 5.22 27.89 8.14 9.51 3.48 17.02 6.23 25.5 6.23s15.99-2.75 25.5-6.23c7.98-2.92 17.04-6.23 27.89-8.14.87-.15 1.74-.3 2.61-.43z" fill="#96e9e2"/><path d="m296 218.2v85.8c0 17.6-14.4 32-32 32h-24v-103c8.48 0 15.99-2.75 25.5-6.23 7.98-2.92 17.04-6.23 27.89-8.14.87-.15 1.74-.3 2.61-.43z" fill="#71c8c8"/><path d="m429.842 9.221c-2.332-5.585-7.79-9.221-13.842-9.221h-96c-4.042 0-7.914 1.632-10.736 4.525l-40 41c-2.734 2.802-4.264 6.561-4.264 10.475v41.787l-35.606 35.606c-2.814 2.813-4.394 6.629-4.394 10.607v48c0 8.284 6.716 15 15 15s15-6.716 15-15v-41.787l31.213-31.213h41.787c4.008 0 7.849-1.604 10.666-4.454l88-89c4.255-4.303 5.508-10.741 3.176-16.325z" fill="#dfe9ed"/><path d="m429.842 9.221c-2.332-5.585-7.79-9.221-13.842-9.221h-32l-159 159v33c0 8.284 6.716 15 15 15s15-6.716 15-15v-41.787l31.213-31.213h41.787c4.008 0 7.849-1.604 10.666-4.454l88-89c4.255-4.303 5.508-10.741 3.176-16.325z" fill="#b9d4db"/></g></svg>