<svg id="Capa_1" enable-background="new 0 0 512 512" height="512" viewBox="0 0 512 512" width="512" xmlns="http://www.w3.org/2000/svg"><g><g><path clip-rule="evenodd" d="m373.194 87.443c-17.756-53.91-76.962-77.721-154.418-55.074-16.795 4.861-23.548 9.198-30.331 9.198-6.753 0-13.506-4.337-30.301-9.198-84.297-24.655-146.967 5.705-158.144 70.036v44.537c.408 2.736.873 5.502 1.426 8.296 8.732 44.1 41.101 77.546 41.101 140.334 0 58.334 0 144.438 59.846 144.438s59.38-75.887 65.93-134.134c3.318-29.371 11.731-38.802 20.143-38.802 8.441 0 16.854 9.431 20.172 38.802 6.549 58.247 6.084 134.134 65.93 134.134 50.648 0 58.42-61.74 59.613-116.057 24.043-93.207 34.784-162.166 39.033-236.51z" fill="#faf5dc" fill-rule="evenodd"/></g><g><path clip-rule="evenodd" d="m448.468 147.29c-16.33-30.739-44.099-51.523-75.273-59.848-28.351-7.597-59.555-4.89-87.557 9.984-58.711 31.176-81.066 104.093-49.862 162.806 20.288 38.22 58.187 61.012 98.385 63.719 21.627 1.455 43.895-2.911 64.445-13.827 58.711-31.174 81.066-104.092 49.862-162.834z" fill="#c3ddff" fill-rule="evenodd"/></g><g><path clip-rule="evenodd" d="m326.039 187.664v-21.773c0-5.094 4.162-9.286 9.285-9.286h13.593c5.094 0 9.285 4.192 9.285 9.286v21.773h6.87 14.903c5.123 0 9.315 4.192 9.315 9.315v13.565c0 5.123-4.192 9.315-9.315 9.315h-21.773v21.773c0 5.123-4.192 9.315-9.285 9.315h-8.732-4.861c-5.123 0-9.285-4.192-9.285-9.315v-21.773h-21.773c-5.123 0-9.315-4.192-9.315-9.315v-13.565c0-5.123 4.192-9.315 9.315-9.315zm92.011-24.218c-9.082-17.087-23.083-29.866-39.354-37.492-23.636-11.09-52.045-11.294-76.904 1.892-41.916 22.268-57.867 74.315-35.599 116.261 14.147 26.635 40.315 42.79 68.288 45.322 16.039 1.426 32.659-1.601 47.97-9.722 41.915-22.269 57.867-74.315 35.599-116.261z" fill="#edf4ff" fill-rule="evenodd"/></g><g><path clip-rule="evenodd" d="m389.291 196.979c0-5.123-4.192-9.315-9.315-9.315h-14.903-6.87v-21.773c0-5.094-4.192-9.286-9.285-9.286h-13.593c-5.123 0-9.285 4.192-9.285 9.286v21.773h-21.773c-5.123 0-9.315 4.192-9.315 9.315v13.565c0 5.123 4.192 9.315 9.315 9.315h21.773v21.773c0 5.123 4.162 9.315 9.285 9.315h4.861 8.732c5.094 0 9.285-4.192 9.285-9.315v-21.773h21.773c5.123 0 9.315-4.192 9.315-9.315z" fill="#ff8086" fill-rule="evenodd"/></g><g><path clip-rule="evenodd" d="m444.043 357.893-30.388-57.228-21.249-1.717-10.101 18.367 30.389 57.228h20.667z" fill="#7e707d" fill-rule="evenodd"/></g><g><path clip-rule="evenodd" d="m507.324 429.21-25.673-48.292-37.608 10.101-33.271 27.595 25.673 48.292c10.362 19.503 34.784 26.955 54.287 16.592 9.868-5.24 16.679-14.118 19.619-24.102 2.154-7.335 2.241-15.253 0-22.821-.756-2.504-1.746-4.978-3.027-7.365z" fill="#edf4ff" fill-rule="evenodd"/></g><g><path clip-rule="evenodd" d="m373.194 87.443c-17.756-53.91-76.962-77.721-154.418-55.074-12.924 3.755-19.91 7.19-25.528 8.558 22.733 20.813 41.974 50.533 55.887 86.279 9.809-11.906 22.064-22.123 36.502-29.778 28.002-14.876 59.206-17.583 87.557-9.985z" fill="#f5ebcd" fill-rule="evenodd"/></g><g><path clip-rule="evenodd" d="m274.547 440.009c50.648 0 58.42-61.74 59.613-116.057-22.442-1.514-44.157-9.286-62.524-22.501-4.279 46.487-16.301 88.898-33.853 123.625 8.704 9.315 20.522 14.933 36.764 14.933z" fill="#f5ebcd" fill-rule="evenodd"/></g><g><path clip-rule="evenodd" d="m382.451 279.707c41.916-22.268 57.867-74.315 35.599-116.261-9.082-17.087-23.083-29.866-39.354-37.492-2.62-1.223-5.327-2.329-8.034-3.289-12.575-4.425-26.139-5.909-39.616-4.163 8.878 1.135 17.552 3.668 25.644 7.452 4.512 2.125 8.849 4.628 12.953 7.51 2.853 2.008 5.56 4.192 8.179 6.549 7.19 6.52 13.39 14.38 18.222 23.433 22.268 41.946 6.316 93.992-35.628 116.261-5.501 2.94-11.207 5.21-16.999 6.841-2.969.844-5.909 1.514-8.907 2.009-1.106.175-2.212.349-3.318.495 1.077.146 2.183.262 3.289.378 2.707.233 5.443.349 8.179.32 13.448-.059 27.071-3.29 39.791-10.043z" fill="#dbeaff" fill-rule="evenodd"/></g><g><path clip-rule="evenodd" d="m377.619 125.459c.349.175.728.32 1.077.495-.349-.175-.728-.32-1.077-.495zm70.849 21.831c-16.33-30.739-44.099-51.523-75.273-59.848-18.775-5.036-38.772-5.531-58.303-.99.64.146 1.252.291 1.863.466 20.259 5.414 39.092 16.097 54.286 31.379 2.27 2.271 4.454 4.657 6.578 7.161.349.175.728.32 1.077.495 16.271 7.627 30.272 20.405 39.354 37.492 22.268 41.946 6.316 93.992-35.599 116.261-2.067 1.106-4.162 2.096-6.258 2.998-9.373 10.683-20.783 19.852-34.056 26.897-1.63.873-3.289 1.717-4.948 2.503-.961.437-1.921.873-2.853 1.31-7.015 3.115-14.205 5.472-21.453 7.161 6.957 1.747 14.088 2.882 21.278 3.377 16.009 1.077 32.397-1.048 48.145-6.637 5.531-1.979 10.974-4.366 16.301-7.19 5.298-2.824 10.333-5.996 15.049-9.46 47.27-34.814 63.192-99.96 34.812-153.375z" fill="#a4ccff" fill-rule="evenodd"/></g><g><path clip-rule="evenodd" d="m444.043 357.893-30.389-57.228c-4.715 3.464-9.751 6.637-15.049 9.46-.087.029-.146.058-.204.116l29.778 56.064h.029z" fill="#6a5d6a" fill-rule="evenodd"/></g><g><path clip-rule="evenodd" d="m507.324 429.21-25.673-48.292-18.978 10.101 25.673 48.292c1.281 2.387 2.27 4.861 3.027 7.365 2.241 7.568 2.154 15.486 0 22.792-1.979 6.695-5.647 12.866-10.828 17.785 3.493-.757 6.899-2.009 10.188-3.755 9.868-5.24 16.679-14.118 19.619-24.102 2.154-7.335 2.241-15.253 0-22.821-.757-2.504-1.747-4.978-3.028-7.365z" fill="#dbeaff" fill-rule="evenodd"/></g><g><path clip-rule="evenodd" d="m481.651 380.918-14.059-26.431c-2.067-3.93-6.986-5.414-10.886-3.347l-12.662 6.753c-14.67 7.772-29.341 15.573-44.011 23.374-3.9 2.096-5.414 6.986-3.318 10.887l14.059 26.46z" fill="#f9f7f8" fill-rule="evenodd"/></g><g><path clip-rule="evenodd" d="m481.651 380.918-14.059-26.431c-2.067-3.93-6.986-5.414-10.886-3.347l-12.662 6.753-6.316 3.348c3.9-2.067 8.791-.582 10.886 3.318l14.059 26.46z" fill="#f0f0f0" fill-rule="evenodd"/></g></g></svg>