<svg height="512" viewBox="0 0 256 256" width="512" xmlns="http://www.w3.org/2000/svg"><g id="Layer_16"><g><g><path d="m154.903 63.203v-38.265h-23.891v21.248z" fill="#3a70bf"/></g><g><g><path d="m156.192 24.938h-26.469c-2.606 0-4.719-2.113-4.719-4.719s2.113-4.719 4.719-4.719h26.469c2.606 0 4.719 2.113 4.719 4.719s-2.113 4.719-4.719 4.719z" fill="#5290db"/></g></g><g><path d="m154.903 63.203v-38.265h-23.891v21.248z" fill="#3a70bf"/></g><g><g><path d="m156.192 27.438h-26.469c-3.98 0-7.219-3.239-7.219-7.219s3.238-7.219 7.219-7.219h26.469c3.98 0 7.219 3.239 7.219 7.219s-3.239 7.219-7.219 7.219zm-26.469-9.438c-1.224 0-2.219.996-2.219 2.219s.996 2.219 2.219 2.219h26.469c1.224 0 2.219-.996 2.219-2.219s-.995-2.219-2.219-2.219z"/></g></g><g><path d="m131.012 48.229c-1.381 0-2.5-1.119-2.5-2.5v-19.854c0-1.381 1.119-2.5 2.5-2.5s2.5 1.119 2.5 2.5v19.853c0 1.381-1.119 2.501-2.5 2.501z"/></g><g><path d="m154.903 64.958c-1.381 0-2.5-1.119-2.5-2.5v-36.583c0-1.381 1.119-2.5 2.5-2.5s2.5 1.119 2.5 2.5v36.583c0 1.381-1.119 2.5-2.5 2.5z"/></g><g><path d="m131.012 48c-1.381 0-2.5-1.119-2.5-2.5v-19.833c0-1.381 1.119-2.5 2.5-2.5s2.5 1.119 2.5 2.5v19.833c0 1.381-1.119 2.5-2.5 2.5z"/></g><g><g><path d="m156.192 24.938h-26.469c-2.606 0-4.719-2.113-4.719-4.719s2.113-4.719 4.719-4.719h26.469c2.606 0 4.719 2.113 4.719 4.719s-2.113 4.719-4.719 4.719z" fill="#5290db"/></g></g><g><g><path d="m156.192 27.438h-26.469c-3.98 0-7.219-3.239-7.219-7.219s3.238-7.219 7.219-7.219h26.469c3.98 0 7.219 3.239 7.219 7.219s-3.239 7.219-7.219 7.219zm-26.469-9.438c-1.224 0-2.219.996-2.219 2.219s.996 2.219 2.219 2.219h26.469c1.224 0 2.219-.996 2.219-2.219s-.995-2.219-2.219-2.219z"/></g></g><g><path d="m154.903 65.125c-1.381 0-2.5-1.119-2.5-2.5v-37c0-1.381 1.119-2.5 2.5-2.5s2.5 1.119 2.5 2.5v37c0 1.381-1.119 2.5-2.5 2.5z"/></g><g><g><g><path d="m58.8 25.3c-4.5-.8-8-4.3-8.9-8.7 0-.2-.4-.2-.4 0-.9 4.4-4.4 7.9-8.9 8.7-.2 0-.2.3 0 .4 4.5.8 8 4.3 8.9 8.7 0 .2.4.2.4 0 .9-4.4 4.4-7.9 8.9-8.7.2-.1.2-.4 0-.4z" fill="#f5c84c"/></g></g></g><g><g><g><path d="m206.61 104.66c-3.157-.561-5.613-3.017-6.245-6.104 0-.14-.281-.14-.281 0-.632 3.087-3.087 5.543-6.245 6.104-.14 0-.14.211 0 .281 3.157.561 5.613 3.017 6.245 6.104 0 .14.281.14.281 0 .632-3.087 3.087-5.543 6.245-6.104.14-.071.14-.281 0-.281z" fill="#f5c84c"/></g></g></g><g><g><g><path d="m101.7 215.95h-2.3v-2.3c0-1.7-1.4-3.2-3.2-3.2s-3.2 1.4-3.2 3.2v2.3h-2.3c-1.7 0-3.2 1.4-3.2 3.2s1.4 3.2 3.2 3.2h2.3v2.3c0 1.7 1.4 3.2 3.2 3.2s3.2-1.4 3.2-3.2v-2.3h2.3c1.7 0 3.2-1.4 3.2-3.2s-1.4-3.2-3.2-3.2z" fill="#70d6f9"/></g></g></g><g><g><g><circle cx="106.8" cy="243.85" fill="#87d147" r="3.4"/></g></g></g><g><g><g><circle cx="74.8" cy="3.4" fill="#fc657e" r="3.4"/></g></g></g><g><g><path d="m169.93 87.298-75.406-53.712-75.406 53.712c-2.453 1.747-5.858 1.175-7.606-1.278-1.747-2.453-1.175-5.858 1.278-7.606l78.57-55.965c1.893-1.349 4.434-1.349 6.328 0l78.57 55.965c2.453 1.747 3.025 5.153 1.278 7.606-1.746 2.452-5.151 3.026-7.606 1.278z" fill="#fc657e"/></g></g><g><g><path d="m137.129 145.216c6.501-6.501 14.075-11.288 22.155-14.371v-51.13l-64.76-46.129-64.76 46.129v103.985h89.107c1.444-14.22 7.665-27.891 18.258-38.484z" fill="#edf4fc"/></g></g><g><g><path d="m73.666 87.154c.428 0 .848.036 1.258.1v-.929c0-.004 0-.009 0-.013.001-.659.62-1.146 1.265-1.011 3.551.743 14.112 2.014 21.271-6.989.392-.493 1.119-.54 1.569-.099 1.649 1.616 5.939 4.843 14.081 5.082.556.016 1.001.474 1.012 1.03.002.102.003.204.003.307v2.622c.41-.064.83-.1 1.258-.1 2.206 0 4.204.877 5.676 2.296v-14.719c0-6.158-5.038-11.196-11.196-11.196-2.089 0-4.041.59-5.719 1.596-1.96-3.271-5.531-5.48-9.602-5.48h-5.749c-11.127 0-20.232 9.104-20.232 20.232v9.065c1.399-1.12 3.172-1.794 5.105-1.794z" fill="#754e34"/></g></g><g><path d="m115.382 87.154c-.428 0-.848.036-1.258.1v14.838c0 .442-.02.879-.049 1.314.427.069.861.114 1.307.114 4.52 0 8.183-3.664 8.183-8.183s-3.663-8.183-8.183-8.183z" fill="#f9d0b4"/></g><g><path d="m74.923 102.092c0-2.031 0-10.801 0-14.838-.41-.064-.83-.1-1.258-.1-4.52 0-8.183 3.664-8.183 8.183s3.664 8.183 8.183 8.183c.446 0 .88-.045 1.307-.114-.028-.435-.049-.872-.049-1.314z" fill="#f9d0b4"/></g><g><path d="m97.459 78.312c-7.159 9.003-17.72 7.732-21.271 6.989-.645-.135-1.264.351-1.265 1.011v.013 15.767c0 10.78 8.82 19.6 19.6 19.6 10.78 0 19.6-8.82 19.6-19.6v-17.46c0-.102-.001-.205-.003-.307-.011-.556-.456-1.014-1.012-1.03-8.143-.239-12.433-3.466-14.081-5.082-.449-.441-1.176-.394-1.568.099z" fill="#f9d0b4"/></g><g><path d="m83.014 141.894c.83.83 2.175.83 3.005 0l5.022-5.022c.83-.83.83-2.175 0-3.005l-7.01-7.01c-.556.702-1.253 1.297-2.063 1.74-.092.05-.933.468-1.939.965-2.17 1.074-4.442 1.927-6.774 2.573z" fill="#9be5f9"/></g><g><path d="m103.028 141.894c.83.83 2.175.83 3.005 0l9.76-9.76c-2.385-.662-4.706-1.541-6.921-2.648-1.093-.546-2.037-1.026-2.213-1.139-.633-.408-1.177-.921-1.634-1.498l-7.018 7.018c-.83.83-.83 2.175 0 3.005z" fill="#9be5f9"/></g><g><g><path d="m133.975 148.618-.208-6.332c-.188-3.38-2.552-6.244-5.835-7.071l-11.252-2.832c-.298-.075-.591-.167-.888-.249l-9.76 9.76c-.83.83-2.175.83-3.005 0l-5.022-5.022c-.83-.83-.83-2.175 0-3.005l7.018-7.018c-.929-1.173-1.471-2.637-1.471-4.19v-3.19c-2.707 1.417-5.778 2.224-9.03 2.224-3.252 0-6.323-.807-9.03-2.224v3.19c0 1.554-.533 3.025-1.463 4.198l7.01 7.01c.83.83.83 2.175 0 3.005l-5.022 5.022c-.83.83-2.175.83-3.005 0l-9.759-9.759c-.292.081-.582.171-.876.245l-11.264 2.835c-3.283.826-5.647 3.691-5.835 7.071l-.752 23.014c-.075 2.483 1.918 4.537 4.402 4.537h62.936c2.582-7.668 6.644-14.891 12.111-21.219z" fill="#70d6f9"/></g></g><g><path d="m91.559 135.998h5.93c-.226-.729-.06-1.554.517-2.131l7.018-7.018c-.929-1.173-1.471-2.637-1.471-4.19v-3.19c-2.707 1.417-5.778 2.224-9.03 2.224-3.252 0-6.323-.807-9.03-2.224v3.19c0 1.554-.533 3.025-1.463 4.198l7.01 7.01c.579.577.745 1.402.519 2.131z" fill="#f9d0b4"/></g><g><g><path d="m173.083 90.807c-1.596 0-3.207-.478-4.603-1.472l-73.956-52.679-73.956 52.678c-3.572 2.545-8.547 1.707-11.092-1.864-1.233-1.73-1.718-3.837-1.366-5.933s1.499-3.928 3.229-5.16l78.57-55.965c2.759-1.966 6.467-1.967 9.228 0l78.57 55.965c3.572 2.544 4.409 7.52 1.864 11.092-1.548 2.177-4.001 3.338-6.488 3.338zm-1.703-5.545c1.326.944 3.174.633 4.12-.692.944-1.327.634-3.175-.692-4.12l-78.57-55.965c-1.025-.729-2.402-.729-3.426 0l-78.572 55.965c-.643.458-1.068 1.139-1.199 1.917-.13.778.05 1.56.507 2.203.945 1.327 2.792 1.637 4.119.692l75.407-53.712c.867-.618 2.033-.618 2.9 0z"/></g></g><g><path d="m29.764 185.375c-1.381 0-2.5-1.119-2.5-2.5v-102.625c0-1.381 1.119-2.5 2.5-2.5s2.5 1.119 2.5 2.5v102.626c0 1.38-1.119 2.499-2.5 2.499z"/></g><g><path d="m159.284 132.906c-1.381 0-2.5-1.119-2.5-2.5v-50.156c0-1.381 1.119-2.5 2.5-2.5s2.5 1.119 2.5 2.5v50.156c0 1.381-1.119 2.5-2.5 2.5z"/></g><g><g><path d="m121.058 91.313c-1.381 0-2.5-1.119-2.5-2.5v-14.082c0-4.795-3.901-8.696-8.696-8.696-1.547 0-3.08.429-4.434 1.241-.569.341-1.251.44-1.893.281-.643-.161-1.196-.571-1.537-1.14-1.576-2.631-4.434-4.265-7.457-4.265h-5.75c-9.777 0-17.731 7.954-17.731 17.731v8.427c0 1.381-1.119 2.5-2.5 2.5s-2.5-1.119-2.5-2.5v-8.427c0-12.534 10.197-22.731 22.731-22.731h5.75c3.998 0 7.807 1.802 10.392 4.816 1.572-.614 3.243-.933 4.929-.933 7.552 0 13.696 6.144 13.696 13.696v14.082c0 1.381-1.119 2.5-2.5 2.5z"/></g></g><g><path d="m115.382 106.021c-.36 0-.714-.021-1.064-.059-1.373-.149-2.364-1.383-2.215-2.755s1.371-2.365 2.755-2.215c.172.019.347.03.524.03 3.134 0 5.683-2.549 5.683-5.683s-2.549-5.684-5.683-5.684c-.13 0-.259.005-.387.014-1.375.109-2.575-.934-2.675-2.312-.101-1.377.934-2.575 2.312-2.675.247-.018.498-.028.75-.028 5.891 0 10.683 4.792 10.683 10.684 0 5.89-4.792 10.683-10.683 10.683z"/></g><g><path d="m73.666 106.021c-5.891 0-10.683-4.792-10.683-10.683s4.792-10.684 10.683-10.684c.448 0 .91.031 1.375.091 1.369.179 2.334 1.434 2.155 2.803s-1.428 2.335-2.803 2.155c-.25-.033-.495-.049-.728-.049-3.134 0-5.683 2.55-5.683 5.684s2.549 5.683 5.683 5.683c.181 0 .357-.011.533-.031 1.378-.151 2.608.838 2.759 2.21.152 1.372-.838 2.607-2.21 2.759-.355.04-.715.062-1.081.062z"/></g><g><path d="m94.524 124.192c-12.187 0-22.101-9.914-22.101-22.1v-15.767c.001-1.081.477-2.078 1.307-2.751.836-.678 1.92-.939 2.971-.72 3.597.752 12.628 1.665 18.801-6.099l.001-.001c.628-.789 1.563-1.276 2.567-1.338 1-.062 1.989.307 2.708 1.011 1.266 1.241 5.01 4.151 12.404 4.368 1.891.055 3.401 1.584 3.438 3.481l.004.354v17.46c.001 12.188-9.914 22.102-22.1 22.102zm-17.101-36.145v14.045c0 9.429 7.671 17.1 17.101 17.1s17.101-7.671 17.101-17.1v-16.368c-6.655-.473-10.842-2.812-13.189-4.699-7.011 7.746-16.428 7.645-21.013 7.022z"/></g><g><path d="m84.517 145.014c-1.184 0-2.369-.451-3.27-1.353l-9.759-9.759c-.629-.629-.876-1.544-.65-2.404.227-.86.893-1.535 1.75-1.772 2.22-.615 4.351-1.424 6.333-2.405.933-.461 1.72-.851 1.872-.931.482-.264.92-.633 1.279-1.086.443-.559 1.104-.902 1.815-.943.717-.043 1.408.224 1.912.728l7.01 7.01c1.803 1.804 1.803 4.738 0 6.541l-5.022 5.022c-.901.901-2.086 1.352-3.27 1.352zm.265-4.888h.01zm-6.894-6.895 6.629 6.629 4.492-4.491-5.059-5.058c-.252.171-.513.332-.783.479-.093.051-.975.49-2.03 1.012-1.05.52-2.136.997-3.249 1.429z"/></g><g><path d="m104.531 145.014c-1.185 0-2.369-.451-3.27-1.353l-5.022-5.022c-1.803-1.803-1.803-4.737 0-6.54l7.019-7.019c.504-.504 1.206-.768 1.913-.728.712.041 1.373.385 1.815.944.306.387.652.706 1.027.947.017.008.352.192 1.978 1.005 2.027 1.013 4.204 1.846 6.472 2.476.857.238 1.523.913 1.749 1.772.227.86-.021 1.775-.65 2.404l-9.76 9.76c-.903.903-2.087 1.354-3.271 1.354zm.265-4.888h.01zm-4.757-4.756 4.492 4.491 6.632-6.631c-1.168-.454-2.307-.957-3.408-1.507-1.957-.979-2.26-1.151-2.452-1.276-.068-.044-.137-.089-.204-.135z"/></g><g><g><path d="m84.03 129.357c-.544 0-1.091-.176-1.551-.54-1.083-.857-1.265-2.43-.408-3.512.595-.751.923-1.691.923-2.646v-2.492c0-1.381 1.119-2.5 2.5-2.5s2.5 1.119 2.5 2.5v2.492c0 2.078-.711 4.12-2.003 5.751-.493.622-1.224.947-1.961.947z"/></g><g><path d="m105.026 129.349c-.738 0-1.468-.325-1.961-.948-1.297-1.638-2.011-3.678-2.011-5.742v-2.492c0-1.381 1.119-2.5 2.5-2.5s2.5 1.119 2.5 2.5v2.492c0 .957.322 1.869.931 2.639.857 1.083.674 2.655-.408 3.512-.46.362-1.007.539-1.551.539z"/></g><g><path d="m133.967 150.921c-1.343 0-2.453-1.066-2.497-2.418l-.201-6.135c-.126-2.243-1.713-4.166-3.947-4.729l-11.251-2.832c-.216-.054-.434-.117-.651-.18l-.294-.084c-1.331-.369-2.11-1.747-1.741-3.077.369-1.331 1.747-2.112 3.077-1.741l.354.102c.157.045.314.092.473.131l11.254 2.833c4.367 1.1 7.47 4.859 7.721 9.356l.204 6.192c.045 1.38-1.037 2.536-2.417 2.581-.028.001-.056.001-.084.001z"/></g><g><path d="m121.313 172.337h-62.384c-1.884 0-3.644-.745-4.956-2.097s-2.002-3.133-1.946-5.016l.754-23.02c.253-4.554 3.356-8.313 7.723-9.413l11.265-2.835c.157-.04.313-.085.471-.131l.347-.099c1.328-.372 2.708.41 3.077 1.74.37 1.33-.41 2.708-1.74 3.077l-.291.083c-.213.062-.426.123-.641.177l-11.266 2.835c-2.234.563-3.821 2.486-3.949 4.786l-.751 22.957c-.016.513.175 1.004.537 1.376.362.373.848.579 1.367.579h62.384c1.381 0 2.5 1.119 2.5 2.5s-1.12 2.501-2.501 2.501z"/></g></g><g><path d="m97.083 138.499h-5.02c-1.381 0-2.5-1.119-2.5-2.5s1.119-2.5 2.5-2.5h5.02c1.381 0 2.5 1.119 2.5 2.5s-1.12 2.5-2.5 2.5z"/></g><g><path d="m132.145 219.9 2.025 3.143c.789-.532 1.73-.853 2.747-.853h15.86c2.761 0 5 2.239 5 5s-2.239 5-5 5h-3.688c9.36 7.344 20.822 11.34 32.906 11.34 39.233 0 65.051-41.008 48.318-76.337-1.093-2.307-.248-5.011 1.855-6.343l-2.272-3.585c-.831.535-1.818.836-2.855.797l-15.588-.604c-2.759-.107-4.909-2.431-4.802-5.19s2.425-4.923 5.19-4.802l2.536.098c-9.263-7.084-20.524-10.93-32.381-10.93-39.44 0-65.358 41.423-48.051 76.892 1.121 2.3.3 5.022-1.8 6.374z" fill="#70d6f9"/></g><g><path d="m176.798 196.193v20.553c0 2.761 2.239 5 5 5s5-2.239 5-5v-20.553c0-2.395 1.948-4.343 4.342-4.343h3.737c2.761 0 5-2.239 5-5v-18.685c0-2.761-2.239-5-5-5h-26.159c-2.761 0-5 2.239-5 5s2.239 5 5 5h21.159v8.74c-7.319.642-13.079 6.805-13.079 14.288z" fill="#dae6f1"/></g><g><path d="m133.944 213.524c-17.308-35.469 8.611-76.892 48.051-76.892 11.858 0 23.119 3.846 32.381 10.93l-2.536-.098c-2.765-.121-5.083 2.043-5.19 4.802s2.043 5.083 4.802 5.19l15.588.604c2.744.103 5.148-2.157 5.193-4.914l.272-16.465c.045-2.761-2.156-5.036-4.917-5.082-2.778-.025-5.036 2.156-5.082 4.917l-.077 4.678c-24.901-20.626-61.986-19.293-85.3 4.02-19.152 19.152-24.044 48.366-12.173 72.694 1.209 2.477 4.2 3.513 6.687 2.301 2.481-1.209 3.511-4.203 2.301-6.685z" fill="#5290db"/></g><g><path d="m239.35 162.913c-1.182-2.496-4.164-3.563-6.659-2.378-2.496 1.182-3.561 4.163-2.378 6.659 16.733 35.329-9.085 76.337-48.318 76.337-12.083 0-23.546-3.996-32.906-11.34h3.688c2.761 0 5-2.239 5-5s-2.239-5-5-5h-15.86c-2.976 0-5.332 2.706-5 5.624v15.236c0 2.761 2.239 5 5 5s5-2.239 5-5v-3.777c11.624 9.486 25.849 14.229 40.078 14.227 46.695-.005 77.18-48.733 57.355-90.588z" fill="#5290db"/></g><g><path d="m181.798 224.247c-4.136 0-7.5-3.364-7.5-7.5v-20.553c0-7.873 5.585-14.684 13.08-16.417v-4.111h-18.659c-4.136 0-7.5-3.364-7.5-7.5s3.364-7.5 7.5-7.5h26.159c4.136 0 7.5 3.364 7.5 7.5v18.685c0 4.136-3.364 7.5-7.5 7.5h-3.737c-1.016 0-1.842.827-1.842 1.843v20.553c-.001 4.135-3.365 7.5-7.501 7.5zm-13.08-58.581c-1.378 0-2.5 1.122-2.5 2.5s1.122 2.5 2.5 2.5h21.159c1.381 0 2.5 1.119 2.5 2.5v8.74c0 1.296-.991 2.377-2.282 2.49-6.055.531-10.798 5.712-10.798 11.797v20.553c0 1.378 1.122 2.5 2.5 2.5s2.5-1.122 2.5-2.5v-20.553c0-3.773 3.069-6.843 6.842-6.843h3.737c1.378 0 2.5-1.122 2.5-2.5v-18.685c0-1.378-1.122-2.5-2.5-2.5h-26.158z"/></g><g><path d="m129.462 223.216c-2.78 0-5.455-1.549-6.753-4.209-12.339-25.288-7.255-55.652 12.652-75.559 11.67-11.67 27.194-18.495 43.713-19.217 14.708-.647 29.067 3.583 40.941 11.971.211-3.954 3.525-7.102 7.526-7.102h.068c4.154.069 7.462 3.489 7.394 7.623l-.272 16.465c-.032 1.977-.892 3.907-2.358 5.296-1.469 1.392-3.435 2.154-5.428 2.074l-15.591-.604c-2.002-.078-3.854-.93-5.214-2.4-1.36-1.471-2.067-3.383-1.989-5.384.078-2.014.937-3.874 2.417-5.237.353-.325.73-.611 1.128-.859-7.75-4.558-16.525-6.942-25.702-6.942-17.664 0-33.812 8.966-43.194 23.984-9.377 15.009-10.353 33.443-2.61 49.312 1.813 3.717.265 8.216-3.452 10.029-1.054.515-2.174.759-3.276.759zm52.537-94.049c-.9 0-1.802.02-2.706.059-15.266.668-29.613 6.974-40.396 17.757-18.397 18.398-23.097 46.46-11.694 69.831.605 1.239 2.106 1.755 3.344 1.15 1.238-.604 1.754-2.104 1.149-3.343-8.504-17.428-7.434-37.672 2.863-54.153 10.302-16.49 28.035-26.335 47.435-26.335 12.388 0 24.11 3.958 33.9 11.444.866.662 1.203 1.808.833 2.833-.369 1.025-1.353 1.701-2.449 1.651l-2.536-.098c-.676-.025-1.302.201-1.788.649-.495.456-.781 1.078-.808 1.752-.026.667.21 1.305.663 1.795.454.49 1.071.774 1.738.8l15.588.604c.65.018 1.299-.234 1.799-.708.504-.477.788-1.099.798-1.749l.272-16.465c.022-1.378-1.081-2.518-2.459-2.541-.008 0-.016 0-.024 0-1.382 0-2.494 1.076-2.517 2.459l-.077 4.677c-.016.961-.581 1.828-1.455 2.23-.874.401-1.9.267-2.64-.346-10.924-9.05-24.623-13.953-38.833-13.953z"/></g><g><path d="m181.988 256c-13.493 0-26.686-4.155-37.663-11.783-.563 3.583-3.671 6.333-7.409 6.333-4.136 0-7.5-3.364-7.5-7.5v-15.11c-.19-2.063.502-4.139 1.913-5.719 1.437-1.609 3.473-2.532 5.587-2.532h15.86c4.136 0 7.5 3.364 7.5 7.5 0 2.965-1.729 5.534-4.233 6.75 7.809 4.656 16.664 7.09 25.951 7.09 17.532 0 33.612-8.868 43.012-23.722 9.411-14.87 10.55-33.205 3.047-49.045-.858-1.811-.959-3.847-.285-5.733.674-1.887 2.042-3.398 3.853-4.255 1.808-.858 3.844-.96 5.733-.286 1.886.674 3.397 2.042 4.255 3.853 9.713 20.507 8.242 44.239-3.935 63.483-12.152 19.205-32.967 30.672-55.68 30.674-.001.002-.005.002-.006.002zm-40.072-19.227c.565 0 1.126.192 1.581.563 10.797 8.811 24.468 13.664 38.491 13.664h.006c20.989-.002 40.224-10.6 51.455-28.348 11.256-17.788 12.617-39.72 3.642-58.669-.286-.604-.79-1.061-1.419-1.286s-1.306-.191-1.908.095c-.606.287-1.062.791-1.286 1.419-.225.628-.191 1.307.095 1.911 8.241 17.398 6.992 37.533-3.341 53.859-10.322 16.311-27.98 26.048-47.237 26.048-12.637 0-24.549-4.106-34.449-11.874-.839-.658-1.168-1.775-.82-2.783s1.297-1.684 2.363-1.684h3.688c1.378 0 2.5-1.122 2.5-2.5s-1.122-2.5-2.5-2.5h-15.86c-.947 0-1.57.54-1.857.861-.499.559-.739 1.28-.659 1.98.011.094.016.188.016.283v15.236c0 1.378 1.122 2.5 2.5 2.5s2.5-1.122 2.5-2.5v-3.777c0-.965.556-1.845 1.428-2.258.341-.16.707-.24 1.071-.24z"/></g><g><path d="m118.208 186.2h-96.965c-1.381 0-2.5-1.119-2.5-2.5s1.119-2.5 2.5-2.5h96.965c1.381 0 2.5 1.119 2.5 2.5s-1.119 2.5-2.5 2.5z"/></g></g></g></svg>