<svg id="Capa_1" enable-background="new 0 0 512 512" height="512" viewBox="0 0 512 512" width="512" xmlns="http://www.w3.org/2000/svg"><g><g><path d="m502 276v40c0 11.05-8.95 20-20 20s-20-8.95-20-20c0-13.99 0-26.01 0-40z" fill="#fce8d0"/><path d="m462 276v20h-80v-20h-40v-46c0-22.09 17.91-40 40-40h80c22.09 0 40 17.91 40 40v46z" fill="#ffda8f"/><path d="m452 50c16.57 0 30 13.43 30 30 0 16.56-13.44 30-30 30h-70v-20c0-11.05 8.95-20 20-20h20c11.05 0 20-8.95 20-20z" fill="#ffda8f"/><path d="m382 462c0-39.892 0-133.563 0-166h80v166c-9.679 0-70.257 0-80 0z" fill="#a7e8a6"/><path d="m382 110v40c0 22.09 17.91 40 40 40s40-17.91 40-40v-40z" fill="#fce8d0"/><path d="m462 462c-9.679 0-70.257 0-80 0-22.09 0-40 17.91-40 40h160c0-22.09-17.91-40-40-40z" fill="#8690a6"/><path d="m382 316c0 11.05-8.95 20-20 20s-20-8.95-20-20v-40h40z" fill="#fce8d0"/><path d="m170 276v40c0 11.05-8.95 20-20 20s-20-8.95-20-20c0-13.99 0-26.01 0-40z" fill="#fce8d0"/><path d="m50 276h-40v-46c0-22.09 17.91-40 40-40h80c22.09 0 40 17.91 40 40v46h-40v20h-80z" fill="#b3f1ff"/><path d="m50 462c0-39.892 0-133.563 0-166h80v166c-9.679 0-70.257 0-80 0z" fill="#ff7b79"/><path d="m50 110v40c0 22.09 17.91 40 40 40s40-17.91 40-40v-40z" fill="#fce8d0"/><path d="m130 90v20h-70c-16.524 0-30-13.406-30-30 0-16.57 13.43-30 30-30h10c0 11.05 8.95 20 20 20h20c11.05 0 20 8.95 20 20z" fill="#ffda8f"/><path d="m130 462c-9.679 0-70.257 0-80 0-22.09 0-40 17.91-40 40h160c0-22.09-17.91-40-40-40z" fill="#8690a6"/><path d="m50 316c0 11.05-8.95 20-20 20s-20-8.95-20-20v-40h40z" fill="#fce8d0"/></g><g><path d="m462 180h-.027c6.292-8.363 10.027-18.753 10.027-30v-35.384c12.359-7.152 20-20.165 20-34.616 0-22.056-17.944-40-40-40h-10c-5.522 0-10 4.478-10 10 0 5.514-4.486 10-10 10h-20c-16.542 0-30 13.458-30 30v60c0 11.247 3.735 21.637 10.027 30h-.027c-27.57 0-50 22.43-50 50v86c0 16.542 13.458 30 30 30 3.506 0 6.87-.61 10-1.72v108.726c-22.795 4.646-40 24.847-40 48.994 0 5.522 4.478 10 10 10h160c5.522 0 10-4.478 10-10 0-24.146-17.205-44.348-40-48.994v-108.726c3.13 1.11 6.494 1.72 10 1.72 16.542 0 30-13.458 30-30v-86c0-27.571-22.43-50-50-50zm-70-90c0-5.514 4.486-10 10-10h20c13.037 0 24.159-8.359 28.286-20h1.714c11.028 0 20 8.972 20 20 0 11.251-9.179 20-20 20h-60zm0 60v-30h60v30c0 16.542-13.458 30-30 30s-30-13.458-30-30zm-10 50h80c16.542 0 30 13.458 30 30v36h-20v-36c0-5.522-4.478-10-10-10s-10 4.478-10 10v56h-60v-56c0-5.522-4.478-10-10-10s-10 4.478-10 10v36h-20v-36c0-16.542 13.458-30 30-30zm70 252h-20v-116c0-5.522-4.478-10-10-10s-10 4.478-10 10v116h-20c0-22.941 0-129.09 0-146h60zm-90-126c-5.514 0-10-4.486-10-10v-30h20v30c0 5.513-4.486 10-10 10zm20 146h30v20h-58.286c4.127-11.641 15.249-20 28.286-20zm108.286 20h-58.286v-20h30c13.037 0 24.159 8.359 28.286 20zm-8.286-166c-5.514 0-10-4.486-10-10v-30h20v30c0 5.513-4.486 10-10 10z"/><path d="m0 502c0 5.522 4.477 10 10 10h160c5.523 0 10-4.478 10-10 0-24.146-17.205-44.348-40-48.994v-108.726c3.13 1.11 6.494 1.72 10 1.72 16.542 0 30-13.458 30-30v-86c0-27.57-22.43-50-50-50h-.027c6.292-8.363 10.027-18.753 10.027-30 0-9.1 0-44.228 0-60 0-16.542-13.458-30-30-30h-20c-5.514 0-10-4.486-10-10 0-5.522-4.477-10-10-10h-10c-22.056 0-40 17.944-40 40 0 14.507 7.692 27.491 20 34.617v35.383c0 11.247 3.735 21.637 10.027 30h-.027c-27.57 0-50 22.43-50 50v86c0 16.542 13.458 30 30 30 3.506 0 6.87-.61 10-1.72v108.726c-22.795 4.646-40 24.847-40 48.994zm50-30h30v20h-58.287c4.128-11.641 15.249-20 28.287-20zm10-166h60v146h-20v-116c0-5.522-4.477-10-10-10s-10 4.478-10 10v116h-20c0-22.941 0-129.09 0-146zm98.287 186h-58.287v-20h30c13.038 0 24.159 8.359 28.287 20zm-8.287-166c-5.514 0-10-4.486-10-10v-30h20v30c0 5.513-4.486 10-10 10zm-90-266h1.713c4.128 11.64 15.249 20 28.287 20h20c5.514 0 10 4.486 10 10v10h-60c-10.94 0-20-8.862-20-20 0-11.029 8.972-20 20-20zm0 90v-30h60v30c0 16.542-13.458 30-30 30s-30-13.458-30-30zm-10 50h80c16.542 0 30 13.458 30 30v36h-20v-36c0-5.522-4.477-10-10-10s-10 4.478-10 10v56h-60v-56c0-5.522-4.477-10-10-10s-10 4.478-10 10v36h-20v-36c0-16.542 13.458-30 30-30zm-20 126c-5.514 0-10-4.486-10-10v-30h20v30c0 5.513-4.486 10-10 10z"/><path d="m226 90c0-16.542-13.458-30-30-30s-30 13.458-30 30c0 5.522 4.477 10 10 10s10-4.478 10-10c0-5.514 4.486-10 10-10s10 4.486 10 10c0 3.177-1.463 6.098-4.009 8.01l-31.991 23.99c-3.444 2.582-4.849 7.078-3.487 11.162 1.361 4.083 5.183 6.838 9.487 6.838h40c5.523 0 10-4.478 10-10s-4.477-10-10-10h-9.998l7.993-5.994c7.517-5.645 12.005-14.62 12.005-24.006z"/><path d="m336 140c5.522 0 10-4.478 10-10v-40c0-16.542-13.458-30-30-30-7.678 0-14.688 2.902-20 7.663-5.312-4.761-12.322-7.663-20-7.663-16.542 0-30 13.458-30 30v40c0 5.522 4.478 10 10 10s10-4.478 10-10v-40c0-5.514 4.486-10 10-10s10 4.486 10 10v40c0 5.522 4.478 10 10 10s10-4.478 10-10v-40c0-5.514 4.486-10 10-10s10 4.486 10 10v40c0 5.522 4.478 10 10 10z"/><circle cx="256" cy="30" r="10"/><path d="m221 30c0-5.522-4.477-10-10-10h-56.858l2.929-2.929c3.905-3.905 3.905-10.237 0-14.143-3.905-3.904-10.237-3.904-14.143 0l-20 20c-3.905 3.905-3.905 10.237 0 14.143l20 20c3.906 3.905 10.237 3.905 14.143 0 3.905-3.905 3.905-10.237 0-14.143l-2.929-2.928h56.858c5.523 0 10-4.478 10-10z"/><path d="m291 30c0 5.522 4.478 10 10 10h56.857l-2.929 2.929c-3.905 3.905-3.905 10.237 0 14.143 3.907 3.905 10.236 3.904 14.143 0l20-20c3.905-3.905 3.905-10.237 0-14.143l-20-20c-3.906-3.904-10.236-3.904-14.143 0-3.905 3.905-3.905 10.237 0 14.143l2.929 2.928h-56.857c-5.522 0-10 4.477-10 10z"/></g></g></svg>