<svg id="Layer_2" enable-background="new 0 0 64 64" height="512" viewBox="0 0 64 64" width="512" xmlns="http://www.w3.org/2000/svg"><g><g><path d="m56 16-4 4h-10l-4-4h-1c-.92 0-1.74.41-2.29 1.06-.47-1.7-.71-3.46-.71-5.22 0-2.72 1.1-5.18 2.88-6.96s4.24-2.88 6.96-2.88h6.32c5.44 0 9.84 4.4 9.84 9.84 0 1.76-.24 3.52-.71 5.22-.55-.65-1.37-1.06-2.29-1.06z" fill="#b27946"/><path d="m54 10h-11c-2.761 0-5 2.239-5 5v7c0 3.314 2.686 6 6 6h6c3.314 0 6-2.686 6-6v-10c0-1.105-.895-2-2-2z" fill="#f0d0b4"/><path d="m53.78 33.56-1.78 4.44-5-3 4-3c.98.44 1.91.97 2.78 1.56z" fill="#ffc729"/><path d="m47 35-5 3-1.78-4.44c.87-.59 1.8-1.12 2.78-1.56z" fill="#ffc729"/><path d="m56 52v10h-18v-10h-6v-2-.92c0-3.68 1.08-7.19 2.99-10.16 1.35-2.09 3.12-3.93 5.23-5.36l1.78 4.44 5-3 5 3 1.78-4.44c5.09 3.46 8.22 9.24 8.22 15.52v2.92z" fill="#ffeaa7"/><g fill="#f0d0b4"><path d="m56 52h6v10h-6z"/><path d="m32 52h6v10h-6z"/><path d="m50 28 1 4-4 3-4-3 1-4z"/><path d="m59.29 17.06c.44.52.71 1.2.71 1.94 0 .83-.34 1.58-.88 2.12s-1.29.88-2.12.88h-1v-6h1c.92 0 1.74.41 2.29 1.06z"/><path d="m38 16v6h-1c-.83 0-1.58-.34-2.12-.88s-.88-1.29-.88-2.12c0-.74.27-1.42.71-1.94.55-.65 1.37-1.06 2.29-1.06z"/></g><path d="m52 20v7.65.01c-.63.22-1.3.34-2 .34h-6c-.7 0-1.37-.12-2-.34v-.01-7.65z" fill="#5cd6b3"/><path d="m32 52v10h-6l-1.48-4.45c-.17-.51-.3-1.03-.39-1.55-.09-.54-.13-1.08-.13-1.63 0-1.52.34-3.01 1-4.37h7z" fill="#f0d0b4"/><path d="m25 50c-.66 1.36-1 2.85-1 4.37 0 .55.04 1.09.13 1.63h-14.26c.09-.54.13-1.08.13-1.63 0-1.52-.34-3.01-1-4.37h-7v-2.85c0-3.09.9-6.04 2.51-8.53.98-1.52 2.21-2.87 3.66-3.98.94-.72 1.96-1.34 3.07-1.84.3-.14.57-.3.82-.52l.01.01.55 2.2c.22.89 1.02 1.51 1.94 1.51h4.88c.92 0 1.72-.62 1.94-1.51l.55-2.2.01-.01c.25.22.52.38.82.52 1.11.5 2.13 1.12 3.07 1.84 1.45 1.11 2.68 2.46 3.66 3.98 1.61 2.49 2.51 5.44 2.51 8.53v1.93.92z" fill="#ef7385"/><path d="m25.82 16.19c-.44-1.41-1.64-2.5-3.16-2.75l-1.23-.2s-.01 0-.01-.01l-2.49-.41c-1.77-.29-3.25-1.36-4.11-2.82-3.46.09-6.31 2.7-6.75 6.07-.05.3-.07.61-.07.93v3c0 2.96 1.61 5.55 4 6.92v.01c.63.37 1.33.65 2.06.83l-.59 2.37c-.22.87-.72 1.62-1.41 2.15-.25.22-.52.38-.82.52-1.11.5-2.13 1.12-3.07 1.84l-2.07-.88c-.03-.02-.07-.03-.1-.05-1.2-.54-2.19-1.4-2.88-2.45-.72-1.08-1.12-2.37-1.12-3.72 0-.36.03-.72.08-1.07l2.57-16.05c.78-4.85 4.96-8.42 9.88-8.42h4.94c4.92 0 9.1 3.57 9.88 8.42l2.57 16.05c.05.35.08.71.08 1.07 0 2.66-1.57 5.08-4 6.17-.03.02-.07.03-.1.05l-2.07.88c-.94-.72-1.96-1.34-3.07-1.84-.3-.14-.57-.3-.82-.52-.69-.53-1.19-1.28-1.41-2.15l-.59-2.37c.73-.18 1.43-.46 2.06-.83v-.01c2.39-1.37 4-3.96 4-6.92v-2.61c0-.42-.06-.82-.18-1.2z" fill="#fcd770"/><path d="m26 17.39v2.61c0 2.96-1.61 5.55-4 6.92v-6.92l3.82-3.81c.12.38.18.78.18 1.2z" fill="#f0d0b4"/><path d="m24.52 57.55 1.48 4.45h-18l1.48-4.45c.17-.51.3-1.03.39-1.55h14.26c.09.52.22 1.04.39 1.55z" fill="#b27946"/><path d="m25.82 16.19-3.82 3.81h-10l-3.93-3.93c.44-3.37 3.29-5.98 6.75-6.07.86 1.46 2.34 2.53 4.11 2.82l2.49.41c0 .01.01.01.01.01l1.23.2c1.52.25 2.72 1.34 3.16 2.75z" fill="#f0d0b4"/><path d="m22 20v6.92.01c-.63.37-1.33.65-2.06.83-.62.16-1.27.24-1.94.24h-2c-.67 0-1.32-.08-1.94-.24-.73-.18-1.43-.46-2.06-.83v-.01-6.92z" fill="#5cd6b3"/><path d="m21.94 32.28-.01.01-.55 2.2c-.22.89-1.02 1.51-1.94 1.51h-4.88c-.92 0-1.72-.62-1.94-1.51l-.55-2.2-.01-.01c.69-.53 1.19-1.28 1.41-2.15l.59-2.37c.62.16 1.27.24 1.94.24h2c.67 0 1.32-.08 1.94-.24l.59 2.37c.22.87.72 1.62 1.41 2.15z" fill="#f0d0b4"/><path d="m12 20v6.92c-2.39-1.37-4-3.96-4-6.92v-3c0-.32.02-.63.07-.93z" fill="#f0d0b4"/><path d="m10 54.37c0 .55-.04 1.09-.13 1.63-.09.52-.22 1.04-.39 1.55l-1.48 4.45h-6v-12h7c.66 1.36 1 2.85 1 4.37z" fill="#f0d0b4"/></g><g><circle cx="44" cy="16" r="1"/><circle cx="50" cy="16" r="1"/><path d="m45.5 8.5h1.999v5h-1.999z" transform="matrix(.8 -.6 .6 .8 2.7 30.1)"/><path d="m50.5 8.5h1.999v5h-1.999z" transform="matrix(.8 -.6 .6 .8 3.7 33.1)"/><path d="m51.854 31.297-.604-2.415c2.94-.534 5.241-2.907 5.669-5.882h.081c2.206 0 4-1.794 4-4 0-.791-.238-1.524-.635-2.145.415-1.64.635-3.325.635-5.017 0-5.976-4.862-10.838-10.838-10.838h-6.324c-5.976 0-10.838 4.862-10.838 10.838 0 1.693.22 3.377.635 5.017-.397.621-.635 1.354-.635 2.145 0 2.206 1.794 4 4 4h.08c.429 2.975 2.729 5.348 5.669 5.882l-.604 2.415c-4.645 2.251-8.151 6.208-9.902 10.907-.862-2.776-2.436-5.282-4.55-7.27l.599-.257c2.86-1.226 4.708-4.028 4.708-7.139 0-.41-.033-.823-.098-1.228l-2.567-16.049c-.858-5.365-5.427-9.261-10.862-9.261h-4.945c-5.436 0-10.005 3.896-10.863 9.262l-2.567 16.049c-.065.404-.098.817-.098 1.227 0 3.111 1.848 5.913 4.708 7.139l.599.257c-3.319 3.119-5.307 7.52-5.307 12.218v15.848h62v-13.917c0-7.568-4.358-14.497-11.146-17.786zm-46.854-6.297v6.9c-1.247-1.077-2-2.655-2-4.361 0-.305.024-.611.072-.911l2.568-16.05c.703-4.391 4.44-7.578 8.887-7.578h4.945c4.447 0 8.185 3.187 8.888 7.578l2.567 16.049c.048.3.072.606.072.911 0 1.706-.753 3.285-2 4.361v-6.899h-2v8.055l-1.047.449c-.309-.221-.627-.432-.953-.632v-3.872h-2v2.786c-.745-.4-1.292-1.075-1.498-1.903l-.365-1.459c3.419-1.276 5.864-4.566 5.864-8.424v-2.611c0-2.454-1.757-4.528-4.179-4.932l-.996-.166c-1.769-1.189-2.825-3.149-2.825-5.291h-2c0 1.698.514 3.305 1.424 4.661-2.016-.635-3.424-2.49-3.424-4.661h-2c0 .755.12 1.484.345 2.168-3.656.754-6.345 3.955-6.345 7.832v3c0 3.858 2.445 7.148 5.863 8.425l-.366 1.46c-.205.827-.753 1.502-1.497 1.902v-2.787h-2v3.872c-.326.2-.643.412-.953.632l-1.047-.449v-8.055zm13 2h-2c-1.074 0-2.089-.251-3-.685v-5.315h8v5.315c-.911.434-1.926.685-3 .685zm2.813 5.621-.404 1.621c-.112.446-.511.758-.971.758h-4.877c-.46 0-.858-.312-.97-.757l-.405-1.622c.598-.621 1.036-1.388 1.251-2.251l.365-1.459c.393.052.791.089 1.198.089h2c.407 0 .804-.037 1.197-.089l.365 1.458c.215.864.653 1.632 1.251 2.252zm-8.399-13.621-3.265-3.265c.541-2.46 2.605-4.393 5.148-4.694 1.032 1.433 2.608 2.457 4.47 2.768l3.726.621c.941.157 1.709.738 2.137 1.526l-3.044 3.044zm-1.414 1.414v4.475c-1.235-1.263-2-2.987-2-4.889v-1.586zm14-2v1.586c0 1.902-.765 3.626-2 4.889v-4.475zm-16.464 38.815-1.256 3.771h-4.28v-10h5.334c.429 1.07.666 2.219.666 3.37 0 .975-.156 1.937-.464 2.859zm.851 3.771 1.046-3.138c.095-.284.178-.572.25-.862h12.636c.071.29.154.578.25.862l1.044 3.138zm21.613 0h-4.28l-1.257-3.771c-.307-.922-.463-1.884-.463-2.859 0-1.151.236-2.299.667-3.37h5.333zm0-12h-4.47c.305-.884.47-1.818.47-2.752 0-1.669-.489-3.285-1.415-4.673l-.753-1.13-1.664 1.109.753 1.13c.706 1.059 1.079 2.292 1.079 3.564 0 .992-.234 1.985-.68 2.874l-.154.311c-.763 1.525-1.166 3.233-1.166 4.937 0 .211.013.42.025.63h-12.05c.012-.21.025-.419.025-.63 0-1.704-.403-3.412-1.165-4.936l-.156-.314c-.445-.887-.679-1.88-.679-2.872 0-1.272.373-2.505 1.079-3.563l.753-1.13-1.664-1.109-.753 1.13c-.926 1.387-1.415 3.003-1.415 4.672 0 .935.165 1.869.47 2.752h-4.47v-1.848c0-5.69 3.301-10.888 8.425-13.328l.226.904c.334 1.337 1.532 2.272 2.911 2.272h4.877c1.379 0 2.576-.935 2.91-2.272l.226-.903c5.124 2.439 8.425 7.638 8.425 13.327zm21.538-15.039-1.031 2.577-2.718-1.631 2.317-1.737c.492.243.97.506 1.432.791zm-7.758-4.961h4.439l.649 2.599-2.868 2.151-2.869-2.152zm-.78-2c-.342 0-.677-.035-1-.101v-5.899h8v5.899c-.323.066-.658.101-1 .101zm11-5c0 1.627-.793 3.061-2 3.974v-5.56l2-2zm2-1v-4c1.103 0 2 .897 2 2s-.897 2-2 2zm-20 0c-1.103 0-2-.897-2-2s.897-2 2-2zm4 4.974c-1.207-.914-2-2.348-2-3.974v-3.586l2 2zm1.414-6.974-3.414-3.414v-.586c0-2.206 1.794-4 4-4v-2c-3.309 0-6 2.691-6 6-.591 0-1.148.137-1.654.368-.226-1.163-.346-2.344-.346-3.53 0-4.873 3.965-8.838 8.838-8.838h6.324c4.873 0 8.838 3.965 8.838 8.838 0 1.186-.12 2.368-.346 3.53-.506-.231-1.063-.368-1.654-.368v-3h-2v3.586l-3.414 3.414zm.48 14.17 2.317 1.737-2.718 1.631-1.031-2.577c.462-.285.94-.548 1.432-.791zm-5.894 27.83h-4v-8h4zm24 0h-4v-8h4zm0-10h-4v-3.586c0-.645.251-1.251.707-1.707l-1.414-1.414c-.834.834-1.293 1.942-1.293 3.121v13.586h-16v-13.586c0-1.179-.459-2.287-1.293-3.121l-1.414 1.414c.456.456.707 1.063.707 1.707v3.586h-4v-1.917c0-5.503 2.57-10.621 6.778-13.944l1.729 4.323 5.493-3.296 5.492 3.296 1.729-4.323c4.209 3.323 6.779 8.441 6.779 13.944z"/><circle cx="14" cy="16" r="1"/><circle cx="20" cy="16" r="1"/></g></g></svg>