<svg id="Capa_1" enable-background="new 0 0 512 512" height="512" viewBox="0 0 512 512" width="512" xmlns="http://www.w3.org/2000/svg"><g><path d="m336 512c-25.24 0-47.807-19.572-51.375-44.558l-6.953-49.349c-1.426-9.987-11.555-18.772-21.672-18.772s-20.246 8.785-21.676 18.799l-6.945 49.293c-3.572 25.015-26.139 44.587-51.379 44.587-23.365 0-48.855-16.737-58.223-38.168-4.777-9.872-76.777-160.198-76.777-249.511 0-70.028 56.972-127 127-127 3.092 0 6.189.124 9.207.367 7.791.629 13.793 7.135 13.793 14.952v111.36c0 9.374 7.626 17 17 17h96c9.374 0 17-7.626 17-17v-111.36c0-7.816 6.002-14.323 13.793-14.951 3.017-.244 6.115-.367 9.207-.367 70.028 0 127 56.972 127 127 0 81.737-72.568 240.376-76.715 249.371-9.318 21.498-34.869 38.307-58.285 38.307z" fill="#fff7dc"/><path d="m344 97.321c-3.092 0-6.19.124-9.207.367-7.791.629-13.793 7.135-13.793 14.952v111.36c0 9.374-7.626 17-17 17h-48v158.321c10.117 0 20.246 8.785 21.672 18.772l6.953 49.349c3.568 24.986 26.135 44.558 51.375 44.558 23.416 0 48.967-16.809 58.285-38.308 4.147-8.995 76.715-167.633 76.715-249.371 0-70.027-56.972-127-127-127z" fill="#f4e8c3"/><path d="m256 223c-8.284 0-15-6.716-15-15v-136c0-8.284 6.716-15 15-15 8.283 0 15 6.716 15 15v136c0 8.284-6.717 15-15 15z" fill="#b9d4db"/><path d="m256 57v166c8.283 0 15-6.716 15-15v-136c0-8.284-6.717-15-15-15z" fill="#9dbec6"/><path d="m280 191h-48c-8.284 0-15-6.716-15-15s6.716-15 15-15h48c8.283 0 15 6.716 15 15s-6.717 15-15 15z" fill="#dfe9ed"/><path d="m280 161h-24v30h24c8.283 0 15-6.716 15-15s-6.717-15-15-15z" fill="#b9d4db"/><path d="m280 135h-48c-8.284 0-15-6.716-15-15s6.716-15 15-15h48c8.283 0 15 6.716 15 15s-6.717 15-15 15z" fill="#dfe9ed"/><path d="m280 105h-24v30h24c8.283 0 15-6.716 15-15s-6.717-15-15-15z" fill="#b9d4db"/><path d="m296 0h-80c-8.284 0-15 6.716-15 15v57c0 8.284 6.716 15 15 15h80c8.283 0 15-6.716 15-15v-57c0-8.284-6.717-15-15-15z" fill="#dfe9ed"/><path d="m296 0h-40v87h40c8.283 0 15-6.716 15-15v-57c0-8.284-6.717-15-15-15z" fill="#b9d4db"/></g></svg>