<svg id="Capa_1" enable-background="new 0 0 512 512" height="512" viewBox="0 0 512 512" width="512" xmlns="http://www.w3.org/2000/svg"><g><path d="m424 417h-336c-8.284 0-15 6.716-15 15v1c0 43.56 35.439 79 79 79h208c43.56 0 79-35.44 79-79v-1c0-8.284-6.716-15-15-15z" fill="#71c8c8"/><path d="m424 417h-168v95h104c43.56 0 79-35.44 79-79v-1c0-8.284-6.716-15-15-15z" fill="#5ea6b3"/><path d="m360 145h-16c-9.374 0-17-7.626-17-17v-32c0-8.284-6.716-15-15-15h-112c-8.284 0-15 6.716-15 15v32c0 9.374-7.626 17-17 17h-16c-43.561 0-79 35.439-79 79v208h366v-208c0-43.561-35.44-79-79-79z" fill="#96e9e2"/><path d="m360 145h-16c-9.374 0-17-7.626-17-17v-32c0-8.284-6.716-15-15-15h-56v351h183v-208c0-43.561-35.44-79-79-79z" fill="#71c8c8"/><path d="m296 201c-10.337 0-18.326 2.568-25.375 4.833-5.504 1.769-9.851 3.167-14.625 3.167-4.773 0-9.121-1.398-14.624-3.167-7.049-2.265-15.039-4.833-25.376-4.833-33.972 0-55 32.702-55 63 0 26.147 4.376 55.511 11.706 78.548 10.23 32.15 24.796 48.452 43.294 48.452 16.808 0 22.004-16.562 25.443-27.522 5.164-16.459 8.021-20.478 14.557-20.478s9.393 4.019 14.557 20.478c3.439 10.96 8.635 27.522 25.443 27.522 18.498 0 33.065-16.302 43.294-48.452 7.33-23.037 11.706-52.401 11.706-78.548 0-30.298-21.028-63-55-63z" fill="#fff7dc"/><path d="m296 201c-10.337 0-18.326 2.568-25.375 4.833-5.504 1.769-9.851 3.167-14.625 3.167v134c6.536 0 9.393 4.019 14.557 20.478 3.439 10.96 8.635 27.522 25.443 27.522 18.498 0 33.065-16.302 43.294-48.452 7.33-23.037 11.706-52.401 11.706-78.548 0-30.298-21.028-63-55-63z" fill="#f4e8c3"/><path d="m344 0h-33.666l-15.001 10.667-14.999-10.667h-48.667l-15.001 9-14.999-9h-33.667c-8.284 0-15 6.716-15 15v81c0 8.284 6.716 15 15 15h33.667l14.999-9.375 15.001 9.375h48.667l14.999-10.001 15.001 10.001h33.666c8.284 0 15-6.716 15-15v-81c0-8.284-6.716-15-15-15z" fill="#fff7dc"/><path d="m344 0h-33.666l-15.001 10.667-14.999-10.667h-24.334v111h24.334l14.999-10.001 15.001 10.001h33.666c8.284 0 15-6.716 15-15v-81c0-8.284-6.716-15-15-15z" fill="#f4e8c3"/><path d="m201.667 0h30v111h-30z" fill="#f4e8c3"/><path d="m280.333 0h30v111h-30z" fill="#eadaad"/></g></svg>